# xmcd
#
# Track frame offsets:
#  150
#  11409
#  28753
#  41966
#  53924
#  77681
#  93805
#  113858
#  123992
#  136574
#  148908
#  161051
#  175630
#  187585
#  211628
#  230478
#  242400
#  264836
#
# Disc length: 3722 seconds
#
# Revision: 0
# Processed by: cddbd v1.5.2PL0 Copyright (c) Steve Scherf et al.
# Submitted via: Collectorz.com_Music_Collector 6.11
#
DISCID=dc0e8812
DTITLE=Various Artist - Funk Brothers,Soul Sisters
DYEAR=1900
DGENRE=COMPILATIONS - SOUL
TTITLE0=Slip Away
TTITLE1=Hang On In There Baby
TTITLE2=Nutbush City Limits
TTITLE3=Who's Making Love
TTITLE4=Boogie Nights
TTITLE5=Keep On Truckin
TTITLE6=Stoned Love
TTITLE7=Get Down On It
TTITLE8=Walk Away Renee
TTITLE9=The In Crowd
TTITLE10=Cover Me
TTITLE11=Love Really Hurts Without You
TTITLE12=Soul Twist
TTITLE13=Inner City Blues
TTITLE14=Hurt The One You Love
TTITLE15=Love Potion No.9
TTITLE16=Too Funky In Here
TTITLE17=Theme From Shaft
EXTD=
EXTT0=
EXTT1=
EXTT2=
EXTT3=
EXTT4=
EXTT5=
EXTT6=
EXTT7=
EXTT8=
EXTT9=
EXTT10=
EXTT11=
EXTT12=
EXTT13=
EXTT14=
EXTT15=
EXTT16=
EXTT17=
PLAYORDER=
